HIERARCHY
ROOT Hips
{
	OFFSET 0.000000 0.000000 0.000000
	CHANNELS 6 Xposition Yposition Zposition Zrotation Yrotation Xrotation 
	JOINT LHipJoint
	{
		OFFSET 0.000000 0.000000 0.000000
		CHANNELS 3 Zrotation Yrotation Xrotation
		JOINT LeftUpLeg
		{
			OFFSET 1.363060 -1.794630 0.839290
			CHANNELS 3 Zrotation Yrotation Xrotation
			JOINT LeftLeg
			{
				OFFSET 2.448110 -6.726130 0.000000
				CHANNELS 3 Zrotation Yrotation Xrotation
				JOINT LeftFoot
				{
					OFFSET 2.562200 -7.039590 0.000000
					CHANNELS 3 Zrotation Yrotation Xrotation
					JOINT LeftToeBase
					{
						OFFSET 0.157640 -0.433110 2.322550
						CHANNELS 3 Zrotation Yrotation Xrotation
						End Site
						{
							OFFSET 0.000000 0.000000 0.000000
						}
					}
				}
			}
		}
	}
	JOINT RHipJoint
	{
		OFFSET 0.000000 0.000000 0.000000
		CHANNELS 3 Zrotation Yrotation Xrotation
		JOINT RightUpLeg
		{
			OFFSET -1.305520 -1.794630 0.839290
			CHANNELS 3 Zrotation Yrotation Xrotation
			JOINT RightLeg
			{
				OFFSET -2.542530 -6.985550 0.000000
				CHANNELS 3 Zrotation Yrotation Xrotation
				JOINT RightFoot
				{
					OFFSET -2.568260 -7.056230 0.000000
					CHANNELS 3 Zrotation Yrotation Xrotation
					JOINT RightToeBase
					{
						OFFSET -0.164730 -0.452590 2.363150
						CHANNELS 3 Zrotation Yrotation Xrotation
						End Site
						{
							OFFSET 0.000000 0.000000 0.000000
						}
					}
				}
			}
		}
	}
	JOINT LowerBack
	{
		OFFSET 0.000000 0.000000 0.000000
		CHANNELS 3 Zrotation Yrotation Xrotation
		JOINT Spine
		{
			OFFSET 0.028270 2.035590 -0.193380
			CHANNELS 3 Zrotation Yrotation Xrotation
			JOINT Spine1
			{
				OFFSET 0.056720 2.048850 -0.042750
				CHANNELS 3 Zrotation Yrotation Xrotation
				JOINT Neck
				{
					OFFSET 0.000000 0.000000 0.000000
					CHANNELS 3 Zrotation Yrotation Xrotation
					JOINT Neck1
					{
						OFFSET -0.054170 1.746240 0.172020
						CHANNELS 3 Zrotation Yrotation Xrotation
						JOINT Head
						{
							OFFSET 0.104070 1.761360 -0.123970
							CHANNELS 3 Zrotation Yrotation Xrotation
							End Site
							{
								OFFSET 0.000000 0.000000 0.000000
							}
						}
					}
				}
				JOINT LeftShoulder
				{
					OFFSET 0.000000 0.000000 0.000000
					CHANNELS 3 Zrotation Yrotation Xrotation
					JOINT LeftArm
					{
						OFFSET 3.362410 1.200890 -0.311210
						CHANNELS 3 Zrotation Yrotation Xrotation
						JOINT LeftForeArm
						{
							OFFSET 4.983000 -0.000000 -0.000000
							CHANNELS 3 Zrotation Yrotation Xrotation
							JOINT LeftHand
							{
								OFFSET 3.483560 -0.000000 -0.000000
								CHANNELS 3 Zrotation Yrotation Xrotation
								JOINT LeftFingerBase
								{
									OFFSET 0.000000 0.000000 0.000000
									CHANNELS 3 Zrotation Yrotation Xrotation
									JOINT LeftHandIndex1
									{
										OFFSET 0.715260 -0.000000 -0.000000
										CHANNELS 3 Zrotation Yrotation Xrotation
										End Site
										{
											OFFSET 0.000000 0.000000 0.000000
										}
									}
								}
								JOINT LThumb
								{
									OFFSET 0.000000 0.000000 0.000000
									CHANNELS 3 Zrotation Yrotation Xrotation
									End Site
									{
										OFFSET 0.000000 0.000000 0.000000
									}
								}
							}
						}
					}
				}
				JOINT RightShoulder
				{
					OFFSET 0.000000 0.000000 0.000000
					CHANNELS 3 Zrotation Yrotation Xrotation
					JOINT RightArm
					{
						OFFSET -3.136600 1.374050 -0.404650
						CHANNELS 3 Zrotation Yrotation Xrotation
						JOINT RightForeArm
						{
							OFFSET -5.241900 -0.000000 -0.000000
							CHANNELS 3 Zrotation Yrotation Xrotation
							JOINT RightHand
							{
								OFFSET -3.444170 -0.000000 -0.000000
								CHANNELS 3 Zrotation Yrotation Xrotation
								JOINT RightFingerBase
								{
									OFFSET 0.000000 0.000000 0.000000
									CHANNELS 3 Zrotation Yrotation Xrotation
									JOINT RightHandIndex1
									{
										OFFSET -0.622530 -0.000000 -0.000000
										CHANNELS 3 Zrotation Yrotation Xrotation
										End Site
										{
											OFFSET 0.000000 0.000000 0.000000
										}
									}
								}
								JOINT RThumb
								{
									OFFSET 0.000000 0.000000 0.000000
									CHANNELS 3 Zrotation Yrotation Xrotation
									End Site
									{
										OFFSET 0.000000 0.000000 0.000000
									}
								}
							}
						}
					}
				}
			}
		}
	}
}
MOTION
Frames: 5
Frame Time: 0.008333
-4.670410 16.961659 -2.100533 58.048764 82.212341 78.407422 -11.486173 2.225846 -3.594415 -8.484579 7.477659 -12.740585 -1.646936 1.956615 31.398404 0.617395 3.030342 4.302910 0.542600 0.000000 -79.295100 8.459488 1.368190 -0.324292 8.935735 -0.785273 -40.352509 2.036634 0.461929 9.077380 -2.500357 -12.021080 1.594898 176.549600 0.000000 -2.443900 4.863695 -1.305397 6.745077 -0.003694 -1.279319 -1.518072 -7.114368 -1.362758 0.503082 7.818300 4.708690 5.848031 -5.287385 -0.427799 3.163479 0.000000 0.000000 0.000000 -8.876340 -9.124424 2.376761 -58.813266 -35.860666 12.985186 -3.322023 -31.380452 -0.016829 6.224714 -3.461820 -0.205936 -0.145649 0.254509 0.000000 0.000000 0.000000 0.000000 0.000000 0.000000 0.000000 21.151726 0.418109 0.385408 61.810977 7.884095 -10.908598 2.984703 19.837055 0.008258 -0.288847 8.253538 -0.024952 0.057062 -0.084888 -0.000000 0.000000 0.000000 0.000000 0.000000 0.000000 0.000000 
-4.567633 16.982632 -2.051212 56.792438 82.402394 77.123728 -11.697300 2.152774 -3.681095 -7.739045 7.861919 -13.483288 -1.482693 2.106723 33.005543 0.620688 2.580127 6.044258 0.491500 0.000000 -80.833500 8.292635 1.276525 -0.441013 9.452284 -0.546147 -40.244107 2.083102 0.365791 10.169618 -2.513974 -11.890812 0.837699 176.757200 -0.000000 -3.638100 5.402865 -1.254741 6.950451 0.108922 -1.227964 -1.503692 -7.097354 -1.322156 0.409942 7.955461 5.429704 6.091775 -5.304922 -0.428327 3.223450 0.000000 0.000000 0.000000 -8.715473 -9.126490 2.300264 -60.016244 -35.325501 12.317300 -3.255482 -30.725946 -0.018190 6.547421 -3.640302 -0.226784 -0.140969 0.254561 0.000000 0.000000 0.000000 0.000000 0.000000 0.000000 0.000000 21.403840 1.022999 0.435069 61.595874 8.598512 -13.055355 2.974868 18.089454 0.007742 -0.918945 8.147605 -0.070260 0.061020 -0.086970 -0.000000 0.000000 0.000000 0.000000 0.000000 0.000000 0.000000 
-4.468304 17.005582 -1.997231 55.637519 82.558826 75.940788 -11.873638 2.070455 -3.770729 -7.041338 8.185391 -14.260369 -1.318276 2.252835 34.643798 0.638000 2.073934 7.944453 0.395700 0.000000 -81.749800 8.151994 1.204294 -0.553422 9.915662 -0.306048 -39.970627 2.115891 0.309511 10.956066 -2.554959 -11.881780 0.032326 176.946600 -0.000000 -4.622600 5.845492 -1.218088 7.166277 0.204493 -1.186669 -1.485226 -7.068086 -1.291222 0.318312 8.157184 6.189494 6.353705 -5.305699 -0.428194 3.288697 0.000000 0.000000 0.000000 -8.403168 -9.126002 2.210221 -61.288557 -34.750334 11.662180 -3.184028 -30.035737 -0.019411 6.843284 -3.806825 -0.246830 -0.136135 0.253867 0.000000 0.000000 0.000000 0.000000 0.000000 0.000000 0.000000 21.647533 1.669483 0.480677 61.420399 9.349959 -15.357196 2.944661 16.285513 0.006958 -1.657865 7.991562 -0.121472 0.065134 -0.089076 -0.000000 0.000000 0.000000 0.000000 0.000000 0.000000 0.000000 
-4.372037 17.029129 -1.938232 54.832698 82.668425 75.110599 -12.011533 1.980841 -3.852510 -6.424779 8.410218 -15.060754 -1.157446 2.389087 36.291470 0.670291 1.530290 9.939474 0.251300 -0.000000 -81.913999 8.041967 1.151871 -0.661341 10.302294 -0.100593 -39.576148 2.135025 0.284555 11.480457 -2.615132 -11.961129 -0.772192 177.119000 -0.000000 -5.407201 6.170007 -1.197270 7.377924 0.278907 -1.158412 -1.464371 -7.025067 -1.272399 0.234166 8.424118 6.934017 6.622097 -5.290583 -0.427516 3.356481 0.000000 0.000000 0.000000 -7.946469 -9.147874 2.106940 -62.594809 -34.117672 11.039033 -3.110460 -29.349212 -0.020342 7.078155 -3.948960 -0.263975 -0.131206 0.252351 0.000000 0.000000 0.000000 0.000000 0.000000 0.000000 0.000000 21.885080 2.301530 0.522005 61.281451 10.171541 -17.715543 2.895572 14.435062 0.005908 -2.509384 7.808668 -0.177885 0.069430 -0.091148 -0.000000 0.000000 0.000000 0.000000 0.000000 0.000000 0.000000 
-4.278173 17.052236 -1.874645 54.546732 82.733476 74.806099 -12.116437 1.883313 -3.918534 -5.895948 8.519371 -15.881955 -1.003220 2.511540 37.935237 0.715845 0.964518 11.951478 0.059099 -0.000000 -81.250200 7.958473 1.114284 -0.762109 10.606338 0.057685 -39.094406 2.141571 0.284683 11.773730 -2.687937 -12.110601 -1.521554 177.268600 0.000000 -6.003000 6.382523 -1.192685 7.570355 0.333326 -1.145489 -1.444051 -6.969980 -1.267682 0.160808 8.758184 7.673295 6.896208 -5.256447 -0.426196 3.426941 0.000000 0.000000 0.000000 -7.403825 -9.166863 2.002202 -63.875577 -33.474360 10.529917 -3.045825 -28.665835 -0.020844 7.222000 -4.048961 -0.275415 -0.126724 0.250053 0.000000 0.000000 0.000000 0.000000 0.000000 0.000000 0.000000 22.105698 2.939616 0.555016 61.187460 10.989780 -20.081189 2.827087 12.656430 0.004564 -3.436190 7.574372 -0.235001 0.073521 -0.092932 -0.000000 0.000000 0.000000 0.000000 0.000000 0.000000 0.000000 
